<?xml version="1.0" encoding="UTF-8"?>
<svg id="Layer_1" data-name="Layer 1" xmlns="http://www.w3.org/2000/svg" viewBox="0 0 240 40.56">
  <defs>
    <style>
      .cls-1, .cls-2 {
        fill: #fff;
      }

      .cls-2 {
        font-family: Verdana-Bold, Verdana;
        font-size: 30px;
        font-weight: 700;
      }

      .cls-3 {
        fill: #00a04a;
      }
    </style>
  </defs>
  <text class="cls-2" transform="translate(51.7 31.46)"><tspan x="0" y="0">PAKUNOK</tspan></text>
  <g id="Layer_2" data-name="Layer 2">
    <g id="Layer_1-2" data-name="Layer 1-2">
      <path class="cls-3" d="m41.21,9.81h-22.27c-1.31,0-2.4,1.03-2.45,2.35l-1.02,24.52c-.06,1.35.99,2.5,2.35,2.55.04,0,.07,0,.11,0h24.31c1.35,0,2.45-1.1,2.45-2.45,0-.04,0-.07,0-.11l-1.02-24.52c-.06-1.31-1.14-2.35-2.45-2.35Z"/>
      <circle class="cls-3" cx="23.95" cy="13.48" r="2.45"/>
      <circle class="cls-3" cx="36.21" cy="13.48" r="2.45"/>
      <path class="cls-3" d="m36.21,14.71c-.68,0-1.23-.55-1.23-1.23v-6.13c0-2.71-2.2-4.9-4.9-4.9s-4.9,2.2-4.9,4.9v6.13c0,.68-.55,1.23-1.23,1.23s-1.23-.55-1.23-1.23v-6.13c0-4.06,3.29-7.36,7.36-7.36s7.36,3.29,7.36,7.36v6.13c0,.68-.55,1.23-1.23,1.23Z"/>
    </g>
    <g>
      <path class="cls-1" d="m25.28,23.14c.24.21.64.27.88,0,.69-.75.32-1.97.27-2.91-.05-.85.03-2.13-.64-2.75-.16-.13-.4-.16-.53,0-.64.67-.45,1.89-.45,2.75.03.91-.27,2.21.48,2.91Z"/>
      <path class="cls-1" d="m31.26,21.38c1.41.03,2.11,1.23,2.83,2.27.67.96,2.24.05,1.57-.93-.72-1.04-1.47-2.05-2.48-2.64.43-.27.88-.53,1.28-.83.72-.51,1.63-1.01,1.97-1.84.08-.21-.13-.4-.32-.43-.99-.08-2.05.67-2.88,1.12-.91.48-1.87.99-2.61,1.73-.56.56-.13,1.52.64,1.55Z"/>
      <path class="cls-1" d="m37.79,26.61c-2.69-.27-5.39-.43-8.11-.43s-5.28.05-7.87.75c-.37.11-.24.59.08.61.93.11,1.84.13,2.77.16-.11,1.25-.03,2.53.29,3.76.45,1.79,1.57,2.96,3.31,3.6,1.79.67,4.24.27,5.55-1.17,1.47-1.6,1.52-3.79,1.44-5.84.83.08,1.68.13,2.51.24,1.07.11,1.07-1.57.03-1.68Zm-5.26,5.98c-1.04,1.17-2.96,1.2-4.27.51-1.92-1.01-1.97-3.36-2.13-5.39h2.67c-.13.61-.19,1.23-.24,1.84-.08.75-.21,1.33.32,1.95.29.35.88.32,1.17,0,.56-.56.43-1.2.37-1.95-.03-.61-.05-1.2-.16-1.81,1.01.03,2.03.08,3.04.13.21,1.6.32,3.49-.77,4.72Z"/>
    </g>
  </g>
</svg>